Coordinates
version=1
nRows=30
nColumns=38
inDegrees=no

Units are S.I. units (second, meters, Newtons, ...)
If the header above contains a line with 'inDegrees', this indicates whether rotational values are in degrees (yes) or radians (no).

endheader
time	pelvis_tilt	pelvis_list	pelvis_rotation	pelvis_tx	pelvis_ty	pelvis_tz	hip_flexion_r	hip_adduction_r	hip_rotation_r	knee_angle_r	ankle_angle_r	subtalar_angle_r	mtp_angle_r	hip_flexion_l	hip_adduction_l	hip_rotation_l	knee_angle_l	ankle_angle_l	subtalar_angle_l	mtp_angle_l	lumbar_extension	lumbar_bending	lumbar_rotation	arm_flex_r	arm_add_r	arm_rot_r	elbow_flex_r	pro_sup_r	wrist_flex_r	wrist_dev_r	arm_flex_l	arm_add_l	arm_rot_l	elbow_flex_l	pro_sup_l	wrist_flex_l	wrist_dev_l
2	0.0724995	1.34356	-1.54913	0.659561	-0.344217	1.05167	0.076093	0.0181184	0.128104	0.677455	-0.147689	0	0	-0.12091	-0.177618	-0.241772	1.259	-0.266254	0	0	-0.522906	0.0645617	0.227937	0.179879	-0.645828	1.14683	0.809265	0.389713	0	0	0.212238	-0.249313	0.774219	0.439483	0.789524	0	0
2.01	0.0739727	1.33225	-1.55049	0.660963	-0.353178	1.05498	0.0409679	0.0149496	0.116575	0.650847	-0.151869	0	0	-0.110358	-0.179624	-0.244993	1.27645	-0.250714	0	0	-0.535786	0.0648579	0.23036	0.1842	-0.650123	1.15289	0.813671	0.380585	0	0	0.217014	-0.249433	0.782105	0.4413	0.783156	0	0
2.02	0.0798804	1.32134	-1.5571	0.662207	-0.362151	1.05822	0.00719579	0.0106298	0.105009	0.626868	-0.155477	0	0	-0.100957	-0.179837	-0.248832	1.28718	-0.234402	0	0	-0.548381	0.0632467	0.232366	0.189249	-0.652901	1.15977	0.816741	0.372236	0	0	0.221362	-0.249636	0.787584	0.442325	0.780453	0	0
2.03	0.0908647	1.31179	-1.57055	0.6631	-0.370979	1.0612	-0.0227027	0.00490459	0.0940286	0.608198	-0.157692	0	0	-0.0914652	-0.177951	-0.253965	1.29212	-0.217941	0	0	-0.560138	0.0587976	0.234605	0.19506	-0.654386	1.16676	0.818945	0.363946	0	0	0.225558	-0.249946	0.790188	0.442797	0.779499	0	0
2.04	0.105321	1.30465	-1.58977	0.663544	-0.379541	1.06375	-0.0465908	-0.00175096	0.0847342	0.595781	-0.158371	0	0	-0.0802702	-0.174442	-0.260612	1.29203	-0.201983	0	0	-0.570182	0.0516711	0.237687	0.202313	-0.655173	1.17477	0.820595	0.356541	0	0	0.230033	-0.250265	0.790469	0.442908	0.779231	0	0
2.05	0.121761	1.29863	-1.61071	0.663941	-0.388087	1.06605	-0.0689488	-0.00895337	0.075287	0.583508	-0.158627	0	0	-0.0686687	-0.169916	-0.266682	1.28626	-0.187167	0	0	-0.579117	0.043631	0.239794	0.21023	-0.654698	1.18369	0.820757	0.351495	0	0	0.234615	-0.250856	0.790069	0.44252	0.779173	0	0
2.06	0.139656	1.29329	-1.63262	0.664325	-0.396636	1.06811	-0.0928192	-0.0165526	0.0639902	0.564535	-0.160397	0	0	-0.0571264	-0.164602	-0.272026	1.27507	-0.173408	0	0	-0.587344	0.0350229	0.241207	0.216644	-0.652689	1.18994	0.819706	0.345163	0	0	0.239368	-0.251934	0.789707	0.442098	0.7788	0	0
2.07	0.156712	1.28853	-1.6539	0.664698	-0.405052	1.06998	-0.116347	-0.023496	0.05368	0.543294	-0.163177	0	0	-0.0457702	-0.159025	-0.276949	1.2588	-0.16086	0	0	-0.595405	0.0262658	0.242831	0.222092	-0.650194	1.19394	0.818127	0.337091	0	0	0.244522	-0.252952	0.789973	0.44124	0.779398	0	0
2.08	0.173978	1.28466	-1.67538	0.665082	-0.413391	1.07155	-0.134332	-0.0300884	0.0468534	0.533265	-0.162796	0	0	-0.0342727	-0.153004	-0.281246	1.23778	-0.151576	0	0	-0.602704	0.0171021	0.244336	0.227345	-0.647544	1.1973	0.816294	0.33145	0	0	0.249861	-0.254375	0.79062	0.440606	0.77972	0	0
2.09	0.140139	1.31394	-1.55569	0.672249	-0.432722	1.07387	-0.180943	0.00261136	-0.0908826	0.420302	-0.212403	0	0	0.0278996	-0.172891	-0.191881	1.21965	-0.146295	0	0	-0.566321	0.0488762	0.182902	0.201739	-0.558196	1.16978	0.705359	0.364165	0	0	0.244705	-0.262808	0.77849	0.412603	0.802606	0	0
2.1	0.158187	1.3139	-1.57535	0.673206	-0.441263	1.07481	-0.197477	-0.00143936	-0.0960604	0.40574	-0.215107	0	0	0.0408879	-0.165058	-0.192734	1.18985	-0.13989	0	0	-0.571442	0.0416869	0.18139	0.205114	-0.552612	1.1664	0.699791	0.373485	0	0	0.247287	-0.264294	0.767488	0.41334	0.814193	0	0
2.11	0.177224	1.31322	-1.59547	0.674317	-0.449715	1.07561	-0.214859	-0.0060635	-0.100487	0.391411	-0.215307	0	0	0.0516152	-0.156136	-0.192599	1.15526	-0.132824	0	0	-0.577013	0.034617	0.180424	0.207636	-0.548732	1.16256	0.69665	0.378144	0	0	0.250863	-0.265911	0.760714	0.413983	0.825654	0	0
2.12	0.19665	1.3126	-1.61556	0.675579	-0.458044	1.0762	-0.231477	-0.0111174	-0.104019	0.378612	-0.215086	0	0	0.0609764	-0.146258	-0.191151	1.11638	-0.12573	0	0	-0.582203	0.0278441	0.179397	0.210026	-0.54588	1.15906	0.694806	0.380769	0	0	0.254442	-0.267361	0.754964	0.415237	0.832749	0	0
2.13	0.215974	1.31205	-1.63492	0.677029	-0.466279	1.07664	-0.24615	-0.0164903	-0.10661	0.370019	-0.213639	0	0	0.0688519	-0.135489	-0.188017	1.07325	-0.119427	0	0	-0.58722	0.0214499	0.177669	0.212842	-0.543286	1.15671	0.69335	0.382854	0	0	0.258192	-0.269305	0.751231	0.416911	0.838895	0	0
2.14	0.234814	1.31219	-1.65245	0.678715	-0.474553	1.07688	-0.259795	-0.0216168	-0.111119	0.361367	-0.21265	0	0	0.0760287	-0.123931	-0.18216	1.02636	-0.115165	0	0	-0.591254	0.0159287	0.174914	0.215512	-0.54012	1.15489	0.691013	0.384834	0	0	0.261879	-0.271394	0.748807	0.418409	0.844391	0	0
2.15	0.252734	1.31276	-1.66781	0.680607	-0.482897	1.07696	-0.273101	-0.0263614	-0.117984	0.351825	-0.2129	0	0	0.0820269	-0.111867	-0.173915	0.976317	-0.113076	0	0	-0.594517	0.0114421	0.171336	0.217226	-0.536229	1.15197	0.687822	0.385301	0	0	0.265352	-0.273555	0.747021	0.41999	0.848648	0	0
2.16	0.2684	1.31246	-1.68342	0.682286	-0.490927	1.07695	-0.285166	-0.0314224	-0.119938	0.34546	-0.212961	0	0	0.0847388	-0.100099	-0.167384	0.922956	-0.112713	0	0	-0.599013	0.00662437	0.169588	0.21984	-0.534491	1.14974	0.6874	0.3852	0	0	0.26897	-0.275726	0.745734	0.422482	0.850945	0	0
2.17	0.281249	1.31227	-1.69672	0.68402	-0.498956	1.07681	-0.295932	-0.0355737	-0.121534	0.341447	-0.212842	0	0	0.0854066	-0.0890087	-0.161417	0.86658	-0.112549	0	0	-0.603362	0.00241001	0.168541	0.222403	-0.533478	1.14777	0.687785	0.384914	0	0	0.272449	-0.277794	0.744957	0.425095	0.852334	0	0
2.18	0.308615	1.26058	-1.81819	0.678962	-0.495251	1.07721	-0.297845	-0.0928441	0.00587948	0.430754	-0.154869	0	0	0.0171518	-0.0591782	-0.255886	0.79017	-0.117593	0	0	-0.661651	-0.0426962	0.230416	0.260216	-0.629862	1.19237	0.809971	0.32686	0	0	0.289502	-0.274127	0.778737	0.456851	0.808561	0	0
2.19	0.29713	1.31196	-1.71441	0.687795	-0.514967	1.07605	-0.314944	-0.0421878	-0.125688	0.339997	-0.200981	0	0	0.0811904	-0.0699237	-0.151033	0.746197	-0.115767	0	0	-0.612109	-0.00324243	0.171944	0.229413	-0.540426	1.15787	0.698982	0.352966	0	0	0.285552	-0.283228	0.776868	0.430126	0.823306	0	0
2.2	0.306822	1.31896	-1.72257	0.690145	-0.523673	1.07492	-0.31765	-0.0445898	-0.13306	0.337551	-0.206409	0	0	0.0853163	-0.0609529	-0.141408	0.683509	-0.121972	0	0	-0.607318	-0.00512266	0.166532	0.231372	-0.529455	1.15438	0.684529	0.371064	0	0	0.284132	-0.284683	0.76716	0.429897	0.830869	0	0
2.21	0.312119	1.32382	-1.7274	0.692532	-0.53233	1.07385	-0.32245	-0.0466001	-0.137757	0.336752	-0.204995	0	0	0.0847675	-0.0538078	-0.133477	0.617524	-0.135456	0	0	-0.606168	-0.0059823	0.164233	0.231203	-0.525739	1.14734	0.681107	0.381828	0	0	0.283627	-0.285387	0.757289	0.43148	0.839559	0	0
2.22	0.314618	1.32809	-1.73029	0.694945	-0.54102	1.07271	-0.327649	-0.0482417	-0.140536	0.336719	-0.202549	0	0	0.0820594	-0.0481745	-0.126929	0.549354	-0.15235	0	0	-0.605292	-0.00649492	0.163252	0.231046	-0.523618	1.14195	0.679539	0.38964	0	0	0.2834	-0.285829	0.749581	0.432665	0.847245	0	0
2.23	0.315618	1.33264	-1.73247	0.697359	-0.549742	1.07139	-0.332019	-0.0497704	-0.141792	0.337499	-0.199634	0	0	0.0784009	-0.0437304	-0.121597	0.479777	-0.167117	0	0	-0.60369	-0.00693827	0.163059	0.231248	-0.522278	1.13862	0.678724	0.395416	0	0	0.283077	-0.286265	0.743848	0.43351	0.852456	0	0
2.24	0.315274	1.33715	-1.73418	0.699759	-0.558453	1.06992	-0.33561	-0.0513405	-0.141455	0.339963	-0.194978	0	0	0.0731616	-0.0402805	-0.117803	0.408612	-0.179499	0	0	-0.601959	-0.00728764	0.163456	0.230628	-0.521581	1.13359	0.679312	0.39929	0	0	0.282359	-0.286791	0.738063	0.434906	0.857857	0	0
2.25	0.322368	1.28146	-1.83378	0.695452	-0.556021	1.07017	-0.345503	-0.109291	-0.0238575	0.423386	-0.139146	0	0	-0.00831532	-0.0171585	-0.221935	0.315011	-0.200374	0	0	-0.660101	-0.04761	0.225544	0.260089	-0.617884	1.1699	0.803228	0.345397	0	0	0.295745	-0.283537	0.770657	0.466669	0.816947	0	0
2.26	0.307978	1.34636	-1.72644	0.705646	-0.576575	1.06657	-0.343277	-0.0525457	-0.147948	0.346534	-0.181655	0	0	0.0591491	-0.0348991	-0.108702	0.267137	-0.196041	0	0	-0.59698	-0.00397514	0.167088	0.227525	-0.52893	1.13518	0.690801	0.371941	0	0	0.287857	-0.289727	0.766469	0.436483	0.833019	0	0
2.27	0.308001	1.3577	-1.72639	0.708826	-0.586025	1.06404	-0.337845	-0.053734	-0.148952	0.353341	-0.18258	0	0	0.0603416	-0.0323822	-0.102688	0.204801	-0.195356	0	0	-0.584967	-0.00271789	0.16354	0.227144	-0.520104	1.13397	0.677994	0.388216	0	0	0.282902	-0.289757	0.757541	0.434504	0.839495	0	0
2.28	0.305924	1.36581	-1.72584	0.711966	-0.595479	1.06167	-0.334947	-0.0556391	-0.14931	0.362787	-0.177521	0	0	0.05629	-0.0299911	-0.0984013	0.141825	-0.199717	0	0	-0.576657	-0.00176229	0.162231	0.22542	-0.51665	1.13091	0.673631	0.402802	0	0	0.278117	-0.28978	0.747929	0.43475	0.84745	0	0
2.29	0.301467	1.37284	-1.72332	0.715142	-0.605007	1.05925	-0.333125	-0.0572522	-0.149191	0.372673	-0.171617	0	0	0.0518985	-0.0285591	-0.0941602	0.0866454	-0.201129	0	0	-0.569392	-0.000445188	0.16258	0.221704	-0.515806	1.12552	0.673428	0.411718	0	0	0.273832	-0.289582	0.739915	0.43572	0.853971	0	0
